<svg width="634" height="476" viewBox="0 0 634 476" fill="none" xmlns="http://www.w3.org/2000/svg">
<g clipPath="url(#clip0_140_536)">
<path d="M82.6578 430.106L63.8756 199.841C63.4001 193.97 65.0247 188.139 68.4721 183.379L162.106 53.669C167.178 46.6084 175.618 42.7607 184.296 43.5144L504.823 71.7967C515.204 72.709 523.922 80.087 526.537 90.202L570.6 259.856C571.67 264.021 571.67 268.385 570.521 272.55L527.409 430.661L82.6578 430.106Z" fill="#00BC7D"/>
<path opacity="0.9" d="M82.6578 430.106L63.8756 199.841C63.4001 193.97 65.0247 188.139 68.4721 183.379L162.106 53.669C167.178 46.6084 175.618 42.7607 184.296 43.5144L504.823 71.7967C515.204 72.709 523.922 80.087 526.537 90.202L570.6 259.856C571.67 264.021 571.67 268.385 570.521 272.55L527.409 430.661L82.6578 430.106Z" fill="white"/>
<g opacity="0.7">
<path opacity="0.7" d="M411.661 184.086C422.974 172.763 422.974 154.403 411.661 143.08C400.352 131.756 382.01 131.756 370.699 143.08C359.387 154.403 359.387 172.763 370.699 184.086C382.01 195.41 400.352 195.41 411.661 184.086Z" fill="#3562FF"/>
<path opacity="0.1" d="M411.661 184.086C422.974 172.763 422.974 154.403 411.661 143.08C400.352 131.756 382.01 131.756 370.699 143.08C359.387 154.403 359.387 172.763 370.699 184.086C382.01 195.41 400.352 195.41 411.661 184.086Z" fill="black"/>
<path opacity="0.7" d="M388.88 192.264C404.877 192.264 417.846 179.282 417.846 163.268C417.846 147.254 404.877 134.272 388.88 134.272C372.883 134.272 359.914 147.254 359.914 163.268C359.914 179.282 372.883 192.264 388.88 192.264Z" fill="#3562FF"/>
<path opacity="0.15" d="M388.88 192.264C404.877 192.264 417.846 179.282 417.846 163.268C417.846 147.254 404.877 134.272 388.88 134.272C372.883 134.272 359.914 147.254 359.914 163.268C359.914 179.282 372.883 192.264 388.88 192.264Z" fill="white"/>
<path opacity="0.7" d="M388.88 186.513C401.726 186.513 412.14 176.088 412.14 163.228C412.14 150.369 401.726 139.944 388.88 139.944C376.034 139.944 365.62 150.369 365.62 163.228C365.62 176.088 376.034 186.513 388.88 186.513Z" fill="#3562FF"/>
<path opacity="0.05" d="M388.88 186.513C401.726 186.513 412.14 176.088 412.14 163.228C412.14 150.369 401.726 139.944 388.88 139.944C376.034 139.944 365.62 150.369 365.62 163.228C365.62 176.088 376.034 186.513 388.88 186.513Z" fill="white"/>
<path opacity="0.1" d="M366.848 162.237C367.918 149.424 379.172 139.944 391.971 141.015C396.765 141.412 401.56 143.712 405.047 146.529C395.933 137.485 381.232 137.564 372.198 146.687C363.163 155.811 363.243 170.527 372.356 179.571C372.475 179.69 372.634 179.849 372.792 179.968C370.652 177.389 369.107 174.375 368.235 171.162C367.403 168.504 366.611 165.212 366.848 162.237Z" fill="black"/>
<path opacity="0.7" d="M386.106 179.174L386.384 175.842C382.659 175.366 380.876 173.899 381.272 169.377C381.351 168.385 381.51 167.433 381.747 166.481L386.503 166.878C386.423 167.314 386.344 167.75 386.304 168.187C386.146 170.17 386.186 171.281 388.088 171.439C389.99 171.598 390.227 170.924 390.465 168.425C390.584 167.195 390.584 166.759 389.99 166.084C388.682 164.656 385.274 163.466 383.689 162.118C382.302 160.967 382.064 159.5 382.381 155.533C382.778 150.971 384.244 149.543 388.642 149.702L388.88 147.044L391.575 147.282L391.337 149.94C395.339 150.456 396.607 151.963 396.29 156.049C396.211 156.921 396.092 157.794 395.894 158.627L391.218 158.23C391.297 157.834 391.337 157.437 391.376 156.802C391.535 155.017 391.337 154.105 389.554 153.946C388.008 153.827 387.533 154.303 387.374 156.445C387.176 158.667 387.295 158.905 388.682 159.658C390.188 160.531 391.693 161.126 393.001 161.88C394.824 162.99 396.092 163.506 395.696 167.909C395.18 174.097 393.833 176.16 389.118 176.08L388.84 179.452L386.106 179.174Z" fill="white"/>
</g>
<g opacity="0.7">
<path opacity="0.7" d="M447.663 135.709C455.093 133.153 459.04 125.036 456.48 117.578C453.92 110.119 445.821 106.144 438.391 108.7C430.961 111.255 427.015 119.372 429.574 126.831C432.134 134.289 440.234 138.264 447.663 135.709Z" fill="#3562FF"/>
<path opacity="0.1" d="M447.663 135.709C455.093 133.153 459.04 125.036 456.48 117.578C453.92 110.119 445.821 106.144 438.391 108.7C430.961 111.255 427.015 119.372 429.574 126.831C432.134 134.289 440.234 138.264 447.663 135.709Z" fill="black"/>
<path opacity="0.7" d="M442.96 136.332C450.794 135.745 456.666 128.894 456.08 121.029C455.489 113.165 448.662 107.265 440.828 107.852C432.994 108.439 427.122 115.29 427.708 123.155C428.295 131.019 435.122 136.919 442.96 136.332Z" fill="#3562FF"/>
<path opacity="0.15" d="M442.96 136.332C450.794 135.745 456.666 128.894 456.08 121.029C455.489 113.165 448.662 107.265 440.828 107.852C432.994 108.439 427.122 115.29 427.708 123.155C428.295 131.019 435.122 136.919 442.96 136.332Z" fill="white"/>
<path opacity="0.7" d="M447.679 131.895C453.116 128.703 454.938 121.703 451.753 116.261C448.563 110.818 441.569 108.994 436.132 112.186C430.696 115.378 428.873 122.377 432.063 127.82C435.253 133.262 442.243 135.086 447.679 131.895Z" fill="#3562FF"/>
<path opacity="0.05" d="M447.679 131.895C453.116 128.703 454.938 121.703 451.753 116.261C448.563 110.818 441.569 108.994 436.132 112.186C430.696 115.378 428.873 122.377 432.063 127.82C435.253 133.262 442.243 135.086 447.679 131.895Z" fill="white"/>
<path opacity="0.1" d="M431.08 121.578C431.595 115.271 437.143 110.63 443.404 111.146C445.781 111.424 448 112.376 449.823 113.843C445.345 109.361 438.133 109.401 433.656 113.843C429.178 118.326 429.218 125.545 433.656 130.027C433.735 130.107 433.854 130.226 433.933 130.305C432.863 129.036 432.11 127.568 431.675 125.981C431.358 124.633 430.961 123.006 431.08 121.578Z" fill="black"/>
<path opacity="0.7" d="M440.551 129.908L440.67 128.282C438.847 128.044 437.975 127.33 438.134 125.109C438.173 124.633 438.252 124.157 438.371 123.681L440.709 123.879C440.67 124.077 440.63 124.315 440.63 124.514C440.551 125.466 440.551 126.021 441.502 126.1C442.453 126.18 442.572 125.862 442.651 124.593C442.69 123.998 442.73 123.76 442.413 123.443C441.779 122.729 440.115 122.134 439.322 121.499C438.609 120.944 438.53 120.19 438.688 118.246C438.886 115.985 439.6 115.311 441.779 115.39L441.898 114.081L443.206 114.2L443.087 115.509C445.068 115.747 445.702 116.501 445.504 118.484C445.464 118.921 445.425 119.357 445.306 119.754L443.007 119.555C443.047 119.357 443.047 119.159 443.087 118.841C443.166 117.969 443.087 117.493 442.175 117.453C441.422 117.374 441.185 117.612 441.105 118.683C441.026 119.754 441.066 119.873 441.739 120.269C442.413 120.666 443.206 120.983 443.879 121.34C444.791 121.896 445.385 122.134 445.226 124.315C444.989 127.37 444.315 128.361 441.977 128.322L441.858 129.988L440.551 129.908Z" fill="white"/>
</g>
<g opacity="0.7">
<path opacity="0.7" d="M251.064 117.096C259.249 117.096 265.884 110.454 265.884 102.261C265.884 94.0675 259.249 87.4253 251.064 87.4253C242.88 87.4253 236.245 94.0675 236.245 102.261C236.245 110.454 242.88 117.096 251.064 117.096Z" fill="#3562FF"/>
<path opacity="0.1" d="M251.064 117.096C259.249 117.096 265.884 110.454 265.884 102.261C265.884 94.0675 259.249 87.4253 251.064 87.4253C242.88 87.4253 236.245 94.0675 236.245 102.261C236.245 110.454 242.88 117.096 251.064 117.096Z" fill="black"/>
<path opacity="0.7" d="M253.682 116.668C261.591 114.562 266.298 106.436 264.195 98.5182C262.091 90.6003 253.974 85.8883 246.064 87.9938C238.155 90.0997 233.448 98.2255 235.551 106.144C237.655 114.062 245.772 118.774 253.682 116.668Z" fill="#3562FF"/>
<path opacity="0.15" d="M253.682 116.668C261.591 114.562 266.298 106.436 264.195 98.5182C262.091 90.6003 253.974 85.8883 246.064 87.9938C238.155 90.0997 233.448 98.2255 235.551 106.144C237.655 114.062 245.772 118.774 253.682 116.668Z" fill="white"/>
<path opacity="0.7" d="M249.875 114.2C256.441 114.2 261.763 108.873 261.763 102.3C261.763 95.728 256.441 90.4003 249.875 90.4003C243.31 90.4003 237.988 95.728 237.988 102.3C237.988 108.873 243.31 114.2 249.875 114.2Z" fill="#3562FF"/>
<path opacity="0.05" d="M249.875 114.2C256.441 114.2 261.763 108.873 261.763 102.3C261.763 95.728 256.441 90.4003 249.875 90.4003C243.31 90.4003 237.988 95.728 237.988 102.3C237.988 108.873 243.31 114.2 249.875 114.2Z" fill="white"/>
<path opacity="0.1" d="M238.741 103.927C238.067 97.3817 242.822 91.5507 249.36 90.8763C251.817 90.7177 254.274 91.2333 256.453 92.4233C251.104 88.6153 243.694 89.845 239.89 95.2C236.086 100.555 237.314 107.973 242.663 111.781C242.901 111.939 243.139 112.098 243.416 112.257C242.109 111.186 241.039 109.797 240.286 108.25C239.573 107.021 238.859 105.394 238.741 103.927Z" fill="black"/>
<path opacity="0.7" d="M249.994 110.591L249.836 108.885C247.894 109.004 246.903 108.449 246.666 106.108C246.626 105.632 246.586 105.117 246.626 104.601L249.043 104.363C249.043 104.601 249.043 104.799 249.083 105.037C249.202 106.029 249.321 106.584 250.272 106.505C251.223 106.426 251.302 106.069 251.183 104.76C251.104 104.125 251.104 103.927 250.707 103.649C249.915 103.054 248.092 102.776 247.181 102.261C246.349 101.824 246.111 101.11 245.913 99.0477C245.675 96.7073 246.309 95.8743 248.488 95.5173L248.37 94.1687L249.756 94.01L249.875 95.3587C251.936 95.2397 252.728 95.8743 252.926 97.937C252.966 98.3733 253.006 98.8493 252.966 99.2857L250.589 99.5237C250.589 99.3253 250.549 99.0873 250.549 98.77C250.47 97.8577 250.272 97.4213 249.36 97.5007C248.568 97.58 248.37 97.8577 248.488 98.9683C248.607 100.079 248.687 100.198 249.439 100.476C250.272 100.753 251.104 100.912 251.817 101.19C252.847 101.586 253.521 101.705 253.759 103.966C254.076 107.14 253.6 108.29 251.223 108.687L251.381 110.392L249.994 110.591Z" fill="white"/>
</g>
<g opacity="0.7">
<path opacity="0.7" d="M132.055 248.987C143.499 244.847 149.417 232.188 145.274 220.711C141.131 209.235 128.495 203.288 117.051 207.428C105.608 211.568 99.6893 224.228 103.832 235.704C107.976 247.18 120.612 253.128 132.055 248.987Z" fill="#3562FF"/>
<path opacity="0.1" d="M132.055 248.987C143.499 244.847 149.417 232.188 145.274 220.711C141.131 209.235 128.495 203.288 117.051 207.428C105.608 211.568 99.6893 224.228 103.832 235.704C107.976 247.18 120.612 253.128 132.055 248.987Z" fill="black"/>
<path opacity="0.7" d="M124.799 249.932C136.918 248.828 145.845 238.081 144.74 225.929C143.636 213.777 132.917 204.82 120.799 205.924C108.681 207.028 99.7533 217.775 100.858 229.927C101.963 242.079 112.682 251.036 124.799 249.932Z" fill="#3562FF"/>
<path opacity="0.15" d="M124.799 249.932C136.918 248.828 145.845 238.081 144.74 225.929C143.636 213.777 132.917 204.82 120.799 205.924C108.681 207.028 99.7533 217.775 100.858 229.927C101.963 242.079 112.682 251.036 124.799 249.932Z" fill="white"/>
<path opacity="0.7" d="M122.798 245.656C132.559 245.656 140.471 237.735 140.471 227.964C140.471 218.194 132.559 210.273 122.798 210.273C113.038 210.273 105.125 218.194 105.125 227.964C105.125 237.735 113.038 245.656 122.798 245.656Z" fill="#3562FF"/>
<path opacity="0.05" d="M122.798 245.656C132.559 245.656 140.471 237.735 140.471 227.964C140.471 218.194 132.559 210.273 122.798 210.273C113.038 210.273 105.125 218.194 105.125 227.964C105.125 237.735 113.038 245.656 122.798 245.656Z" fill="white"/>
<path opacity="0.1" d="M106.037 227.449C106.71 217.691 115.15 210.313 124.859 210.987C128.504 211.225 132.189 212.931 134.884 215.033C127.751 208.369 116.577 208.726 109.88 215.866C103.223 223.006 103.58 234.192 110.712 240.896C109.048 238.952 107.859 236.691 107.146 234.232C106.512 232.209 105.878 229.67 106.037 227.449Z" fill="black"/>
<path opacity="0.7" d="M120.896 240.102L121.055 237.564C118.202 237.246 116.854 236.175 117.092 232.724C117.132 231.971 117.251 231.257 117.409 230.543L121.015 230.781C120.936 231.098 120.896 231.455 120.896 231.772C120.777 233.28 120.817 234.113 122.283 234.232C123.749 234.351 123.908 233.835 124.027 231.891C124.106 230.939 124.106 230.622 123.63 230.146C122.64 229.075 120.024 228.202 118.796 227.211C117.726 226.338 117.528 225.227 117.726 222.213C117.964 218.722 119.073 217.651 122.402 217.691L122.521 215.668L124.581 215.787L124.423 217.77C127.474 218.087 128.465 219.238 128.266 222.332C128.227 223.006 128.148 223.68 127.989 224.315L124.423 224.077C124.462 223.799 124.502 223.482 124.542 222.966C124.621 221.618 124.502 220.904 123.115 220.824C121.926 220.745 121.609 221.102 121.491 222.728C121.372 224.434 121.451 224.593 122.521 225.148C123.67 225.783 124.819 226.219 125.849 226.774C127.276 227.568 128.227 227.964 127.989 231.336C127.672 236.056 126.681 237.603 123.076 237.643L122.917 240.221L120.896 240.102Z" fill="white"/>
</g>
<path d="M542.704 431.216H69.9777C69.6607 431.216 69.3833 430.939 69.3833 430.621C69.3833 430.304 69.6607 430.026 69.9777 430.026H542.704C543.021 430.026 543.298 430.304 543.298 430.621C543.298 430.939 543.021 431.216 542.704 431.216Z" fill="#00BC7D"/>
<g opacity="0.6">
<path opacity="0.6" d="M542.704 431.216H69.9777C69.6607 431.216 69.3833 430.939 69.3833 430.621C69.3833 430.304 69.6607 430.026 69.9777 430.026H542.704C543.021 430.026 543.298 430.304 543.298 430.621C543.298 430.939 543.021 431.216 542.704 431.216Z" fill="white"/>
</g>
<path d="M310.105 420.11H442.81C448.674 420.11 453.469 424.87 453.469 430.78H300.992V429.273C300.992 424.235 305.033 420.11 310.105 420.11Z" fill="#00BC7D"/>
<path opacity="0.3" d="M310.105 420.11H442.81C448.674 420.11 453.469 424.87 453.469 430.78H300.992V429.273C300.992 424.235 305.033 420.11 310.105 420.11Z" fill="black"/>
<path d="M404.611 399.562H354.445V425.425H404.611V399.562Z" fill="#00BC7D"/>
<path d="M245.675 193.177H513.857C518.493 193.177 522.218 196.945 522.218 201.546V391.153C522.218 395.794 518.453 399.523 513.857 399.523H245.675C241.039 399.523 237.314 395.754 237.314 391.153V201.546C237.314 196.945 241.039 193.177 245.675 193.177Z" fill="#00BC7D"/>
<g opacity="0.3">
<path opacity="0.3" d="M245.675 193.177H513.857C518.493 193.177 522.218 196.945 522.218 201.546V391.153C522.218 395.794 518.453 399.523 513.857 399.523H245.675C241.039 399.523 237.314 395.754 237.314 391.153V201.546C237.314 196.945 241.039 193.177 245.675 193.177Z" fill="black"/>
</g>
<path d="M241.118 193.177H509.3C513.936 193.177 517.661 196.945 517.661 201.546V391.153C517.661 395.794 513.897 399.523 509.3 399.523H241.118C236.482 399.523 232.757 395.754 232.757 391.153V201.546C232.757 196.945 236.482 193.177 241.118 193.177Z" fill="#00BC7D"/>
<path opacity="0.3" d="M404.611 399.562H354.445V425.425H404.611V399.562Z" fill="black"/>
<path d="M400.292 399.562H350.126V425.425H400.292V399.562Z" fill="#00BC7D"/>
<path opacity="0.2" d="M400.292 399.562H350.126V425.425H400.292V399.562Z" fill="white"/>
<path opacity="0.3" d="M400.213 399.562H350.008V404.124H400.213V399.562Z" fill="black"/>
<path d="M310.264 421.657H440.115C445.147 421.657 449.229 425.742 449.229 430.78H301.15C301.15 425.742 305.231 421.657 310.264 421.657Z" fill="#00BC7D"/>
<g opacity="0.2">
<path opacity="0.2" d="M241.118 193.177H509.3C513.936 193.177 517.661 196.945 517.661 201.546V391.153C517.661 395.794 513.897 399.523 509.3 399.523H241.118C236.482 399.523 232.757 395.754 232.757 391.153V201.546C232.757 196.945 236.482 193.177 241.118 193.177Z" fill="white"/>
<path d="M1605.26 1218.28H498.557L444.457 704.377C442.457 685.677 449.357 667.177 462.957 654.277L682.557 445.977C692.357 436.677 704.957 430.977 718.357 429.677L1367.96 367.477C1389.46 365.377 1410.36 374.977 1422.86 392.477L1595.26 634.277C1602.56 644.577 1606.46 656.877 1606.46 669.477L1605.26 1218.28Z" fill="#00BC7D"/>
<path opacity="0.9" d="M1605.26 1218.28H498.557L444.457 704.377C442.457 685.677 449.357 667.177 462.957 654.277L682.557 445.977C692.357 436.677 704.957 430.977 718.357 429.677L1367.96 367.477C1389.46 365.377 1410.36 374.977 1422.86 392.477L1595.26 634.277C1602.56 644.577 1606.46 656.877 1606.46 669.477L1605.26 1218.28Z" fill="white"/>
</g>
<path opacity="0.2" d="M310.264 421.657H440.115C445.147 421.657 449.229 425.742 449.229 430.78H301.15C301.15 425.742 305.231 421.657 310.264 421.657Z" fill="white"/>
<path d="M374.932 392.343C377.777 392.343 380.083 390.034 380.083 387.186C380.083 384.338 377.777 382.03 374.932 382.03C372.086 382.03 369.78 384.338 369.78 387.186C369.78 390.034 372.086 392.343 374.932 392.343Z" fill="#15247C"/>
<path opacity="0.2" d="M374.932 382.069C374.694 382.069 374.416 382.109 374.179 382.149C376.992 382.545 378.934 385.163 378.498 387.98C378.181 390.201 376.398 391.986 374.179 392.303C374.416 392.343 374.694 392.343 374.932 392.383C377.785 392.383 380.083 390.082 380.083 387.226C380.083 384.37 377.785 382.069 374.932 382.069Z" fill="black"/>
<path d="M243.416 199.008H507.041C509.181 199.008 510.885 200.713 510.885 202.855V375.207H239.573V202.855C239.573 200.713 241.277 199.008 243.416 199.008Z" fill="white"/>
<path d="M269.767 245.656H260.732V346.726H269.767V245.656Z" fill="#3562FF"/>
<path d="M287.202 280.007H278.167V346.766H287.202V280.007Z" fill="#3562FF"/>
<path d="M304.677 258.23H295.642V347.282H304.677V258.23Z" fill="#3562FF"/>
<path d="M322.112 249.583H313.077V346.766H322.112V249.583Z" fill="#3562FF"/>
<path d="M339.586 282.03H330.552V346.726H339.586V282.03Z" fill="#3562FF"/>
<path d="M357.021 294.723H347.987V346.726H357.021V294.723Z" fill="#3562FF"/>
<path d="M374.496 256.048H365.461V346.766H374.496V256.048Z" fill="#3562FF"/>
<path d="M391.931 272.391H382.896V346.766H391.931V272.391Z" fill="#3562FF"/>
<path d="M409.406 259.341H400.371V346.766H409.406V259.341Z" fill="#3562FF"/>
<path d="M426.841 287.187H417.806V346.766H426.841V287.187Z" fill="#3562FF"/>
<path d="M461.671 256.048H452.637V346.766H461.671V256.048Z" fill="#3562FF"/>
<path d="M498.76 314.398H489.725V345.417H498.76V314.398Z" fill="#3562FF"/>
<path d="M480.691 287.187H471.656V346.766H480.691V287.187Z" fill="#3562FF"/>
<path d="M444.315 275.842H435.281V346.726H444.315V275.842Z" fill="#3562FF"/>
<path d="M498.681 354.263H250.43V224.87C250.351 224.672 250.47 224.434 250.708 224.394C250.906 224.315 251.143 224.434 251.183 224.672C251.223 224.751 251.223 224.831 251.183 224.91V353.549H498.681C498.879 353.47 499.117 353.589 499.196 353.827C499.275 354.025 499.156 354.263 498.919 354.342C498.839 354.303 498.76 354.303 498.681 354.263Z" fill="#15247C"/>
<path d="M266.399 272.47C267.35 271.201 268.459 270.051 269.609 268.98C270.203 268.464 270.797 267.909 271.431 267.472C271.748 267.234 272.065 266.996 272.382 266.758L273.373 266.084C275.988 264.259 278.762 262.752 281.694 261.522C287.559 259.023 293.938 257.873 300.318 258.151C306.698 258.547 312.879 260.531 318.308 263.982C319.021 264.378 319.615 264.854 320.289 265.291C320.963 265.727 321.597 266.203 322.191 266.719L324.053 268.226C324.648 268.742 325.202 269.297 325.797 269.852L326.669 270.685L327.501 271.558L329.125 273.303C329.64 273.898 330.116 274.533 330.631 275.128C331.146 275.723 331.661 276.358 332.097 276.992L333.484 278.936C333.722 279.253 333.96 279.571 334.158 279.928L334.792 280.919L337.367 284.926C338.199 286.274 339.071 287.583 339.903 288.972C340.735 290.36 341.528 291.709 342.36 293.057C345.57 298.531 348.7 304.045 352.147 309.321C355.595 314.596 359.399 319.713 363.995 324.037C366.254 326.219 368.79 328.083 371.524 329.67C374.258 331.217 377.23 332.248 380.321 332.764C383.412 333.24 386.582 333.121 389.633 332.446C391.178 332.089 392.684 331.653 394.11 331.098C395.576 330.542 397.003 329.908 398.39 329.194C401.164 327.726 403.818 326.02 406.315 324.116C408.772 322.133 410.991 319.912 412.932 317.452C416.934 312.573 420.263 307.179 423.591 301.784C426.92 296.389 430.248 290.995 434.013 285.878C435.875 283.299 437.896 280.84 439.996 278.46C442.136 276.08 444.394 273.859 446.811 271.796C451.646 267.631 457.154 264.339 463.097 261.998C469.041 259.737 475.302 258.349 481.642 257.913C487.982 257.476 494.322 257.635 500.622 258.428C494.322 257.675 487.982 257.556 481.681 258.071C475.381 258.587 469.16 260.015 463.256 262.316C457.391 264.656 451.923 267.988 447.168 272.113C444.791 274.176 442.532 276.397 440.432 278.777C438.332 281.157 436.35 283.617 434.528 286.195C430.803 291.312 427.514 296.707 424.186 302.101C420.857 307.496 417.529 312.93 413.487 317.849C411.466 320.348 409.207 322.609 406.751 324.632C406.117 325.108 405.483 325.624 404.809 326.06L403.818 326.734C403.501 326.972 403.145 327.171 402.828 327.409C401.481 328.281 400.094 329.075 398.707 329.828C397.28 330.582 395.854 331.217 394.348 331.812C392.842 332.367 391.297 332.843 389.752 333.2C386.621 333.914 383.372 334.033 380.162 333.557C376.992 333.041 373.941 331.97 371.128 330.344C368.354 328.757 365.778 326.814 363.48 324.592C358.844 320.189 355.04 315.033 351.553 309.717C348.066 304.402 344.975 298.849 341.766 293.375C340.973 291.986 340.181 290.638 339.349 289.289C338.516 287.94 337.684 286.631 336.852 285.243L334.316 281.237L333.682 280.205C333.484 279.888 333.207 279.571 333.009 279.253L331.622 277.31C331.186 276.635 330.671 276.08 330.156 275.445C329.64 274.811 329.165 274.216 328.65 273.621L327.065 271.875L326.272 271.003L325.401 270.17C324.806 269.614 324.251 269.099 323.697 268.543L321.874 267.036C321.28 266.52 320.606 266.084 319.972 265.608C319.338 265.132 318.704 264.656 318.03 264.299C312.681 260.888 306.579 258.865 300.278 258.428C293.938 258.071 287.638 259.182 281.773 261.602C278.841 262.792 276.028 264.299 273.413 266.044L272.422 266.719C272.105 266.957 271.788 267.195 271.471 267.433C270.837 267.909 270.243 268.424 269.648 268.94C268.459 270.051 267.35 271.201 266.399 272.47Z" fill="#15247C"/>
<path d="M457.471 266.679C458.39 266.679 459.135 265.933 459.135 265.013C459.135 264.093 458.39 263.347 457.471 263.347C456.552 263.347 455.807 264.093 455.807 265.013C455.807 265.933 456.552 266.679 457.471 266.679Z" fill="#15247C"/>
<path d="M387.216 334.866C388.135 334.866 388.88 334.12 388.88 333.2C388.88 332.28 388.135 331.534 387.216 331.534C386.296 331.534 385.551 332.28 385.551 333.2C385.551 334.12 386.296 334.866 387.216 334.866Z" fill="#15247C"/>
<path d="M317.713 265.211C318.632 265.211 319.377 264.466 319.377 263.545C319.377 262.625 318.632 261.879 317.713 261.879C316.794 261.879 316.049 262.625 316.049 263.545C316.049 264.466 316.794 265.211 317.713 265.211Z" fill="#15247C"/>
<path d="M369.622 133.28H180.492V280.602H369.622V133.28Z" fill="white" stroke="#3562FF" strokeMiterlimit="10"/>
<path d="M219.166 152.637H188.536V154.343H219.166V152.637Z" fill="#15247C"/>
<path d="M203.672 156.644H188.536V158.349H203.672V156.644Z" fill="#15247C"/>
<g opacity="0.22">
<path opacity="0.22" d="M219.166 152.637H188.536V154.343H219.166V152.637Z" fill="white"/>
</g>
<g opacity="0.22">
<path opacity="0.22" d="M203.672 156.644H188.536V158.349H203.672V156.644Z" fill="white"/>
</g>
<path d="M346.322 263.664H344.737V269.337H346.322V263.664Z" fill="#15247C"/>
<path d="M321.636 263.664H320.051V269.337H321.636V263.664Z" fill="#15247C"/>
<path d="M296.95 263.664H295.365V269.337H296.95V263.664Z" fill="#15247C"/>
<path d="M272.263 263.664H270.678V269.337H272.263V263.664Z" fill="#15247C"/>
<path d="M247.577 263.664H245.992V269.337H247.577V263.664Z" fill="#15247C"/>
<path d="M222.891 263.664H221.306V269.337H222.891V263.664Z" fill="#15247C"/>
<path d="M211.558 259.46H206.01V261.046H211.558V259.46Z" fill="#15247C"/>
<path d="M211.558 238.079H206.01V239.666H211.558V238.079Z" fill="#15247C"/>
<path d="M211.558 197.897H206.01V199.484H211.558V197.897Z" fill="#15247C"/>
<path d="M211.558 177.667H206.01V179.254H211.558V177.667Z" fill="#15247C"/>
<path d="M211.835 217.968H206.288V219.555H211.835V217.968Z" fill="#15247C"/>
<path d="M221.147 256.723V238.873L232.242 221.618L239.771 227.409L255.224 203.331L264.338 209.757L277.018 187.544L287.321 195.953L302.854 166.56L319.496 199.484L332.969 183.022L348.819 178.46V256.723H221.147Z" fill="#00BC7D"/>
<path d="M350.443 172.153H350.166H349.334L346.124 172.193L333.959 172.233L334.039 172.193C330.472 176.834 326.074 182.586 320.962 189.25L320.923 189.289H320.843L288.192 189.329L288.351 189.25L274.601 212.137L261.129 234.589L260.97 234.827L260.812 234.589L243.139 210.233H243.416L227.289 235.422C225.347 238.436 223.841 240.777 222.811 242.403L221.622 244.228C221.345 244.624 221.187 244.823 221.187 244.823C221.187 244.823 221.305 244.585 221.583 244.188L222.732 242.363L227.13 235.342L243.139 210.075L243.258 209.876L243.377 210.075L261.129 234.39H260.812L274.284 211.939L288.034 189.051L288.074 188.972H288.192L320.843 189.012L320.725 189.051L333.84 172.034L333.88 171.995H333.92L346.085 172.034L349.294 172.074H350.126C350.364 172.114 350.443 172.153 350.443 172.153Z" fill="#3562FF"/>
<path d="M248.568 215.866C248.607 216.54 248.092 217.135 247.379 217.175C246.666 217.215 246.111 216.699 246.071 215.985C246.032 215.311 246.547 214.716 247.26 214.676C247.3 214.676 247.3 214.676 247.339 214.676C248.013 214.676 248.568 215.192 248.568 215.866Z" fill="#3562FF"/>
<path d="M286.251 194.446C286.291 195.12 285.736 195.715 285.063 195.755C284.389 195.795 283.795 195.239 283.755 194.565C283.715 193.891 284.27 193.296 284.944 193.256H284.983C285.697 193.216 286.251 193.772 286.251 194.446Z" fill="#3562FF"/>
<path d="M314.306 190.36C315.006 190.36 315.574 189.828 315.574 189.17C315.574 188.513 315.006 187.98 314.306 187.98C313.605 187.98 313.038 188.513 313.038 189.17C313.038 189.828 313.605 190.36 314.306 190.36Z" fill="#3562FF"/>
<path d="M348.7 261.205H214.173V165.013C214.173 164.894 214.253 164.815 214.371 164.815C214.49 164.815 214.57 164.894 214.57 165.013V260.808H348.7C348.819 260.808 348.898 260.888 348.898 261.007C348.898 261.126 348.819 261.205 348.7 261.205Z" fill="#15247C"/>
<path d="M350.285 178.698H219.919C219.8 178.698 219.721 178.619 219.721 178.5C219.721 178.381 219.8 178.302 219.919 178.302H350.285C350.404 178.302 350.483 178.381 350.483 178.5C350.483 178.619 350.404 178.698 350.285 178.698Z" fill="#15247C"/>
<path d="M350.483 199.127H220.117C219.998 199.127 219.918 199.047 219.918 198.928C219.918 198.809 219.998 198.73 220.117 198.73H350.483C350.602 198.73 350.681 198.809 350.681 198.928C350.681 199.047 350.602 199.127 350.483 199.127Z" fill="#15247C"/>
<path d="M350.681 219.555H220.315C220.196 219.555 220.117 219.476 220.117 219.357C220.117 219.238 220.196 219.158 220.315 219.158H350.681C350.8 219.158 350.879 219.238 350.879 219.357C350.879 219.476 350.8 219.555 350.681 219.555Z" fill="#15247C"/>
<path d="M350.879 239.983H220.513C220.394 239.983 220.315 239.904 220.315 239.785C220.315 239.666 220.394 239.587 220.513 239.587H350.879C350.998 239.587 351.077 239.666 351.077 239.785C351.077 239.904 350.998 239.983 350.879 239.983Z" fill="#15247C"/>
<path d="M369.305 133.28H180.69V145.18H369.305V133.28Z" fill="#15247C"/>
<path opacity="0.22" d="M369.305 133.28H180.69V145.18H369.305V133.28Z" fill="white"/>
<path d="M188.417 139.349C188.417 140.142 187.783 140.817 186.95 140.817C186.158 140.817 185.484 140.182 185.484 139.349C185.484 138.556 186.118 137.881 186.95 137.881C187.743 137.881 188.417 138.556 188.417 139.349Z" fill="white"/>
<path d="M193.449 139.349C193.449 140.142 192.815 140.817 191.983 140.817C191.191 140.817 190.517 140.182 190.517 139.349C190.517 138.556 191.151 137.881 191.983 137.881C192.776 137.881 193.449 138.556 193.449 139.349Z" fill="white"/>
<path d="M198.482 139.349C198.482 140.142 197.848 140.817 197.015 140.817C196.223 140.817 195.549 140.182 195.549 139.349C195.549 138.556 196.183 137.881 197.015 137.881C197.808 137.881 198.482 138.556 198.482 139.349Z" fill="white"/>
<path d="M165.276 418.245H116.775V424.394H165.276V418.245Z" fill="#3562FF"/>
<path opacity="0.2" d="M125.928 418.245H116.696V424.394H125.928V418.245Z" fill="black"/>
<path opacity="0.2" d="M159.53 418.245H152.754V424.394H159.53V418.245Z" fill="white"/>
<path d="M165.276 405.909H116.775V412.057H165.276V405.909Z" fill="#3562FF"/>
<path opacity="0.2" d="M125.928 405.909H116.696V412.057H125.928V405.909Z" fill="black"/>
<path opacity="0.2" d="M159.53 405.909H152.754V412.057H159.53V405.909Z" fill="white"/>
<path d="M165.276 387.424H116.775V393.573H165.276V387.424Z" fill="#3562FF"/>
<path opacity="0.2" d="M125.928 387.424H116.696V393.573H125.928V387.424Z" fill="black"/>
<path opacity="0.2" d="M159.53 387.424H152.754V393.573H159.53V387.424Z" fill="white"/>
<path d="M171.061 424.394H122.56V430.542H171.061V424.394Z" fill="#3562FF"/>
<path opacity="0.2" d="M132.03 424.076H122.798V430.225H132.03V424.076Z" fill="black"/>
<path opacity="0.2" d="M165.315 424.394H158.54V430.542H165.315V424.394Z" fill="white"/>
<path d="M171.061 399.761H122.56V405.909H171.061V399.761Z" fill="#3562FF"/>
<path opacity="0.2" d="M132.03 399.761H122.798V405.909H132.03V399.761Z" fill="black"/>
<path opacity="0.2" d="M165.315 399.761H158.54V405.909H165.315V399.761Z" fill="white"/>
<path d="M171.061 393.573H122.56V399.721H171.061V393.573Z" fill="#3562FF"/>
<path opacity="0.2" d="M132.03 393.573H122.798V399.721H132.03V393.573Z" fill="black"/>
<path opacity="0.2" d="M165.315 393.573H158.54V399.721H165.315V393.573Z" fill="white"/>
<path d="M171.061 412.057H122.56V418.206H171.061V412.057Z" fill="#3562FF"/>
<path opacity="0.2" d="M132.03 412.057H122.798V418.206H132.03V412.057Z" fill="black"/>
<path opacity="0.2" d="M165.315 412.057H158.54V418.206H165.315V412.057Z" fill="white"/>
<g opacity="0.3">
<path opacity="0.3" d="M165.315 424.195H122.56V424.592H165.315V424.195Z" fill="black"/>
</g>
<g opacity="0.3">
<path opacity="0.3" d="M165.315 418.047H122.56V418.444H165.315V418.047Z" fill="black"/>
</g>
<g opacity="0.3">
<path opacity="0.3" d="M165.315 411.859H122.56V412.256H165.315V411.859Z" fill="black"/>
</g>
<g opacity="0.3">
<path opacity="0.3" d="M165.315 405.711H122.56V406.107H165.315V405.711Z" fill="black"/>
</g>
<g opacity="0.3">
<path opacity="0.3" d="M171.061 399.562H122.56V399.959H171.061V399.562Z" fill="black"/>
</g>
<g opacity="0.3">
<path opacity="0.3" d="M171.061 393.374H122.56V393.771H171.061V393.374Z" fill="black"/>
</g>
<path d="M115.451 429.983C126.977 426.916 133.836 415.076 130.771 403.537C127.706 391.998 115.877 385.132 104.351 388.2C92.8248 391.268 85.9657 403.109 89.0311 414.648C92.0961 426.187 103.925 433.053 115.451 429.983Z" fill="#3562FF"/>
<path opacity="0.2" d="M115.451 429.983C126.977 426.916 133.836 415.076 130.771 403.537C127.706 391.998 115.877 385.132 104.351 388.2C92.8248 391.268 85.9657 403.109 89.0311 414.648C92.0961 426.187 103.925 433.053 115.451 429.983Z" fill="black"/>
<path d="M128.215 410.502C128.228 398.543 118.551 388.834 106.603 388.822C94.6541 388.809 84.9574 398.495 84.9443 410.455C84.9317 422.418 94.6081 432.125 106.557 432.137C118.506 432.149 128.202 422.466 128.215 410.502Z" fill="#3562FF"/>
<path opacity="0.2" d="M128.215 410.502C128.228 398.543 118.551 388.834 106.603 388.822C94.6541 388.809 84.9574 398.495 84.9443 410.455C84.9317 422.418 94.6081 432.125 106.557 432.137C118.506 432.149 128.202 422.466 128.215 410.502Z" fill="white"/>
<path d="M116.29 424.12C124.75 419.657 127.993 409.174 123.534 400.705C119.074 392.236 108.601 388.989 100.141 393.453C91.6813 397.916 88.4384 408.4 92.8978 416.869C97.3572 425.338 107.831 428.586 116.29 424.12Z" fill="#3562FF"/>
<path opacity="0.2" d="M91.7714 408.091C92.5639 398.571 100.964 391.47 110.474 392.264C114.041 392.581 117.607 394.287 120.222 396.389C113.327 389.725 102.391 389.923 95.7339 396.825C89.0769 403.727 89.2751 414.675 96.1698 421.339C94.5848 419.435 93.4357 417.174 92.7621 414.794C92.2073 412.771 91.6129 410.272 91.7714 408.091Z" fill="black"/>
<path d="M106.155 420.705L106.353 418.245C103.58 417.888 102.232 416.817 102.549 413.446C102.589 412.732 102.708 412.018 102.906 411.304L106.433 411.621C106.353 411.938 106.314 412.256 106.274 412.613C106.155 414.08 106.195 414.913 107.621 415.032C109.048 415.151 109.206 414.636 109.365 412.771C109.444 411.859 109.484 411.542 109.008 411.026C108.057 409.955 105.482 409.082 104.333 408.091C103.302 407.218 103.104 406.147 103.382 403.172C103.659 399.761 104.768 398.69 108.018 398.809L108.176 396.825L110.157 396.984L109.999 398.967C112.971 399.364 113.922 400.475 113.684 403.489C113.644 404.124 113.526 404.798 113.407 405.433L109.92 405.155C109.999 404.798 110.039 404.441 110.039 404.084C110.157 402.736 109.999 402.061 108.691 401.942C107.542 401.863 107.186 402.22 107.067 403.807C106.908 405.473 107.027 405.631 108.057 406.187C109.206 406.821 110.316 407.258 111.267 407.853C112.654 408.686 113.565 409.082 113.288 412.335C112.892 416.936 111.901 418.483 108.374 418.444L108.176 420.943L106.155 420.705Z" fill="white"/>
<path d="M480.532 409.757C481.483 410.193 482.197 410.947 482.553 411.938C482.91 412.89 483.029 413.922 482.91 414.953C482.751 416.936 481.681 418.92 480.532 420.546C478.828 419.158 478.393 416.659 478.234 415.35C477.996 413.327 478.789 409.519 480.532 409.757Z" fill="#15247C"/>
<path d="M482.791 423.997C482.395 422.886 482.632 421.657 483.425 420.784C484.217 419.911 485.287 419.396 486.436 419.356C486.951 419.277 487.506 419.435 487.902 419.792C488.219 420.189 488.299 420.705 488.101 421.181C487.902 421.657 487.625 422.053 487.229 422.331C485.881 423.442 484.455 424.235 482.791 423.997Z" fill="#15247C"/>
<path d="M478.789 424.037C478.314 421.617 476.689 419.594 474.47 418.602C473.915 418.364 473.202 418.206 472.726 418.642C472.251 419.078 472.409 419.792 472.647 420.348C473.717 422.728 476.094 424.275 478.71 424.195" fill="#15247C"/>
<g opacity="0.2">
<path opacity="0.2" d="M480.532 409.757C481.483 410.193 482.197 410.947 482.553 411.938C482.91 412.89 483.029 413.922 482.91 414.953C482.751 416.936 481.681 418.92 480.532 420.546C478.828 419.158 478.393 416.659 478.234 415.35C477.996 413.327 478.789 409.519 480.532 409.757Z" fill="white"/>
</g>
<g opacity="0.2">
<path opacity="0.2" d="M482.791 423.997C482.395 422.886 482.632 421.657 483.425 420.784C484.217 419.911 485.287 419.396 486.436 419.356C486.951 419.277 487.506 419.435 487.902 419.792C488.219 420.189 488.299 420.705 488.101 421.181C487.902 421.657 487.625 422.053 487.229 422.331C485.881 423.442 484.455 424.235 482.791 423.997Z" fill="white"/>
</g>
<g opacity="0.2">
<path opacity="0.2" d="M478.789 424.037C478.314 421.617 476.689 419.594 474.47 418.602C473.915 418.364 473.202 418.206 472.726 418.642C472.251 419.078 472.409 419.792 472.647 420.348C473.717 422.728 476.094 424.275 478.71 424.195" fill="white"/>
</g>
<path d="M480.334 412.771C480.453 414.199 480.532 415.667 480.611 417.095C480.691 418.523 480.73 419.991 480.77 421.419C480.81 422.847 480.849 424.314 480.849 425.742C480.849 427.17 480.849 428.638 480.81 430.066L480.532 421.419L480.413 417.095C480.374 415.667 480.374 414.199 480.334 412.771Z" fill="black"/>
<path d="M481.047 429.828C481.087 428.955 481.206 428.083 481.404 427.21C481.602 426.337 481.879 425.504 482.276 424.711C482.672 423.918 483.187 423.164 483.821 422.569C484.138 422.252 484.534 422.014 484.931 421.815C485.327 421.617 485.763 421.498 486.199 421.419C485.367 421.657 484.574 422.093 483.98 422.688C483.385 423.283 482.87 424.037 482.513 424.79C482.117 425.584 481.84 426.377 481.602 427.25C481.325 428.083 481.166 428.955 481.047 429.828Z" fill="black"/>
<path d="M480.572 429.828C480.453 428.955 480.295 428.083 480.057 427.25C479.819 426.417 479.542 425.584 479.146 424.79C478.789 423.997 478.274 423.283 477.68 422.688C477.046 422.053 476.293 421.617 475.421 421.419C475.857 421.498 476.293 421.617 476.689 421.815C477.085 422.014 477.442 422.291 477.798 422.569C478.432 423.164 478.987 423.918 479.344 424.711C479.74 425.504 480.017 426.337 480.216 427.21C480.414 428.083 480.533 428.955 480.572 429.828Z" fill="black"/>
<path d="M243.575 409.36C244.526 409.796 245.239 410.55 245.596 411.542C245.952 412.494 246.071 413.525 245.952 414.556C245.794 416.54 244.724 418.523 243.575 420.149C241.871 418.761 241.435 416.262 241.277 414.953C241.039 412.93 241.831 409.122 243.575 409.36Z" fill="#15247C"/>
<path d="M245.834 423.6C245.437 422.49 245.675 421.26 246.428 420.387C247.22 419.515 248.29 418.999 249.439 418.959C249.955 418.88 250.509 419.039 250.906 419.396C251.223 419.792 251.302 420.308 251.104 420.784C250.906 421.26 250.628 421.657 250.232 421.934C248.924 423.045 247.498 423.838 245.834 423.6Z" fill="#15247C"/>
<path d="M241.831 423.64C241.356 421.22 239.731 419.197 237.512 418.206C236.958 417.968 236.244 417.809 235.769 418.245C235.293 418.682 235.452 419.396 235.69 419.951C236.759 422.331 239.137 423.878 241.752 423.799" fill="#15247C"/>
<g opacity="0.2">
<path opacity="0.2" d="M243.575 409.36C244.526 409.796 245.239 410.55 245.596 411.542C245.952 412.494 246.071 413.525 245.952 414.556C245.794 416.54 244.724 418.523 243.575 420.149C241.871 418.761 241.435 416.262 241.277 414.953C241.039 412.93 241.831 409.122 243.575 409.36Z" fill="white"/>
</g>
<g opacity="0.2">
<path opacity="0.2" d="M245.834 423.6C245.437 422.49 245.675 421.26 246.428 420.387C247.22 419.515 248.29 418.999 249.439 418.959C249.955 418.88 250.509 419.039 250.906 419.396C251.223 419.792 251.302 420.308 251.104 420.784C250.906 421.26 250.628 421.657 250.232 421.934C248.924 423.045 247.498 423.838 245.834 423.6Z" fill="white"/>
</g>
<g opacity="0.2">
<path opacity="0.2" d="M241.831 423.64C241.356 421.22 239.731 419.197 237.512 418.206C236.958 417.968 236.244 417.809 235.769 418.245C235.293 418.682 235.452 419.396 235.69 419.951C236.759 422.331 239.137 423.878 241.752 423.799" fill="white"/>
</g>
<path d="M243.377 412.375C243.496 413.803 243.575 415.27 243.654 416.698C243.734 418.126 243.773 419.594 243.813 421.022C243.852 422.45 243.892 423.918 243.892 425.346C243.892 426.774 243.892 428.241 243.852 429.669L243.575 421.022L243.456 416.698C243.417 415.27 243.417 413.803 243.377 412.375Z" fill="black"/>
<path d="M244.09 429.431C244.129 428.559 244.248 427.686 244.446 426.813C244.645 425.941 244.922 425.108 245.318 424.314C245.714 423.521 246.23 422.767 246.864 422.172C247.181 421.855 247.577 421.617 247.973 421.419C248.369 421.22 248.805 421.101 249.241 421.022C248.409 421.26 247.616 421.696 247.022 422.291C246.428 422.886 245.913 423.64 245.556 424.394C245.16 425.187 244.882 425.98 244.645 426.853C244.367 427.686 244.209 428.559 244.09 429.431Z" fill="black"/>
<path d="M243.615 429.431C243.496 428.559 243.337 427.686 243.099 426.853C242.862 426.02 242.584 425.187 242.188 424.394C241.832 423.6 241.316 422.886 240.722 422.291C240.088 421.657 239.335 421.22 238.463 421.022C238.899 421.101 239.335 421.22 239.731 421.419C240.128 421.617 240.484 421.895 240.841 422.172C241.475 422.767 242.03 423.521 242.386 424.314C242.782 425.108 243.06 425.941 243.258 426.813C243.456 427.686 243.575 428.559 243.615 429.431Z" fill="black"/>
<path d="M198.323 422.807L223.208 423.402L213.302 416.302C211.637 415.112 210.607 413.247 210.528 411.185L210.171 403.41L196.659 403.45L198.323 422.807Z" fill="#FC9D9D"/>
<path opacity="0.15" d="M201.097 413.723V413.565C201.018 412.692 201.612 411.938 202.484 411.819L210.409 410.669L210.329 409.082H197.095L198.283 422.291L209.141 421.101L205.574 419.673C203.038 418.682 201.335 416.381 201.097 413.723Z" fill="black"/>
<path d="M153.507 422.371H164.682L166.742 403.41L153.507 403.45V422.371Z" fill="#FC9D9D"/>
<path opacity="0.15" d="M156.321 419.158L156.598 413.327C156.638 412.573 157.232 411.938 157.985 411.819L166.029 410.59L166.227 408.963L153.626 409.003L153.586 422.45L156.321 419.158Z" fill="black"/>
<path d="M152.794 254.105V409.082H167.336L179.977 282.744C179.977 281.871 180.69 281.157 181.562 281.157C182.433 281.157 183.147 281.871 183.147 282.744L196.619 409.082H211.122L205.891 254.105H152.794Z" fill="#15247C"/>
<path d="M154.339 415.667L154.696 415.31C157.39 412.692 161.67 412.732 164.325 415.429L164.523 415.667C165.157 416.341 165.513 417.214 165.513 418.126V419.594C165.513 420.427 165.632 421.3 165.91 422.093L167.098 426.06C167.415 427.012 167.574 428.003 167.574 428.995V429.511C167.534 430.304 166.861 430.899 166.068 430.899H152.279C151.486 430.939 150.813 430.344 150.773 429.55V429.352C150.773 428.202 150.971 427.051 151.367 425.941L152.754 422.053C153.071 421.181 153.23 420.229 153.23 419.277L153.269 418.166C153.349 417.214 153.705 416.341 154.339 415.667Z" fill="#00BC7D"/>
<path d="M152.397 409.082H167.891L168.208 405.909H152.437L152.397 409.082Z" fill="#15247C"/>
<path opacity="0.3" d="M152.397 409.082H158.896L159.054 405.909H152.437L152.397 409.082Z" fill="black"/>
<path opacity="0.5" d="M150.773 429.312V429.511C150.813 430.304 151.486 430.899 152.279 430.899H166.029C166.821 430.939 167.495 430.344 167.534 429.55C167.534 429.55 167.534 429.55 167.534 429.511V428.995C167.534 428.797 167.534 428.598 167.495 428.44H150.773V429.312Z" fill="black"/>
<path d="M196.58 418.404V428.122C196.58 429.669 197.848 430.939 199.393 430.978H232.361C233.035 430.978 233.55 430.463 233.55 429.788C233.55 427.488 232.044 425.425 229.865 424.671L222.415 422.212L212.984 414.874C211.994 414.12 210.646 414.16 209.695 414.953L205.535 418.523C204.94 419.039 204.069 419.237 203.316 418.999L198.006 417.333C197.412 417.174 196.778 417.492 196.58 418.087C196.619 418.206 196.58 418.285 196.58 418.404Z" fill="#00BC7D"/>
<path opacity="0.5" d="M199.433 430.939H232.401C233.074 430.939 233.589 430.423 233.589 429.749C233.589 429.352 233.55 428.955 233.431 428.559H196.619C196.857 429.947 198.046 430.939 199.433 430.939Z" fill="black"/>
<path d="M212.826 418.761C212.747 418.761 212.707 418.721 212.628 418.682C212.509 418.563 212.509 418.364 212.628 418.245L214.609 416.103C214.728 415.984 214.926 415.984 215.045 416.103C215.164 416.222 215.164 416.381 215.045 416.5L213.064 418.642C212.984 418.721 212.905 418.721 212.826 418.761Z" fill="white"/>
<path d="M214.411 419.991C214.332 419.991 214.292 419.951 214.213 419.911C214.094 419.792 214.094 419.594 214.213 419.475L216.194 417.333C216.313 417.214 216.511 417.214 216.63 417.333C216.749 417.452 216.749 417.65 216.63 417.769L214.649 419.911C214.569 419.951 214.49 419.951 214.411 419.991Z" fill="white"/>
<path d="M215.996 421.181C215.917 421.181 215.837 421.141 215.798 421.101C215.679 420.982 215.679 420.784 215.798 420.665L217.779 418.523C217.898 418.404 218.096 418.444 218.215 418.563C218.294 418.682 218.294 418.84 218.215 418.959L216.234 421.101C216.154 421.181 216.075 421.22 215.996 421.181Z" fill="white"/>
<path d="M162.026 418.959C161.987 418.959 161.908 418.959 161.868 418.92C160.283 418.166 158.421 418.166 156.796 418.92C156.598 418.999 156.4 418.88 156.36 418.721C156.32 418.563 156.36 418.404 156.479 418.325C158.262 417.452 160.402 417.452 162.185 418.325C162.343 418.404 162.423 418.602 162.343 418.801C162.304 418.88 162.145 418.959 162.026 418.959Z" fill="white"/>
<path d="M162.027 420.705C161.987 420.705 161.908 420.705 161.868 420.665C160.283 419.911 158.421 419.911 156.796 420.665C156.638 420.784 156.439 420.784 156.321 420.625C156.202 420.467 156.202 420.268 156.36 420.149C156.4 420.11 156.479 420.07 156.519 420.07C158.302 419.197 160.442 419.197 162.225 420.07C162.383 420.149 162.462 420.348 162.383 420.546C162.304 420.665 162.145 420.705 162.027 420.705Z" fill="white"/>
<path d="M162.027 422.45C161.987 422.45 161.908 422.45 161.868 422.41C160.283 421.657 158.421 421.657 156.796 422.41C156.638 422.49 156.44 422.41 156.321 422.252C156.241 422.093 156.321 421.895 156.479 421.776C158.262 420.903 160.402 420.903 162.185 421.776C162.344 421.855 162.423 422.053 162.344 422.252C162.304 422.371 162.146 422.45 162.027 422.45Z" fill="white"/>
<path opacity="0.3" d="M205.258 407.297L190.913 288.02C190.438 284.212 187.228 281.316 183.385 281.316H181.602C182.434 281.316 183.107 281.951 183.187 282.784L196.58 408.448L205.258 407.297Z" fill="black"/>
<path d="M196.223 409.082H211.677L211.439 405.909H195.906L196.223 409.082Z" fill="#15247C"/>
<path d="M169.793 182.11L178.669 179.968L189.011 182.744V261.007H168.05L169.793 182.11Z" fill="white"/>
<path opacity="0.3" d="M196.223 409.082H205.416L205.06 405.909H195.906L196.223 409.082Z" fill="black"/>
<path d="M172.052 185.6C176.371 188.575 182.116 188.417 186.198 185.164L186.634 184.847C187.069 184.49 186.871 184.212 186.792 183.657L186.237 174.771C186.435 173.899 186.554 173.026 186.515 172.153C186.673 167.671 187.069 163.585 187.069 163.585C187.069 163.585 172.17 154.224 171.576 165.648L171.338 168.623L170.308 183.617C170.308 184.014 170.427 184.45 170.704 184.767L172.052 185.6Z" fill="#FC9D9D"/>
<path d="M188.417 164.26C191.19 164.26 193.449 161.999 193.449 159.222C193.449 156.445 191.19 154.184 188.417 154.184C185.643 154.184 183.384 156.445 183.384 159.222C183.345 161.999 185.603 164.26 188.417 164.26Z" fill="black"/>
<path d="M189.804 156.247C189.804 156.247 193.092 178.857 181.601 179.333C171.655 179.769 171.972 164.339 171.972 164.339L173.359 154.422L189.804 156.247Z" fill="#FC9D9D"/>
<path d="M188.1 156.882L178.035 157.596C176.807 157.715 175.856 158.786 175.895 160.055C175.975 161.324 175.024 162.395 173.795 162.514C173.478 162.554 173.201 162.832 173.201 163.189L173.359 165.41C173.399 165.688 173.201 165.926 172.963 165.965C172.923 165.965 172.923 165.965 172.884 165.965C172.646 166.005 172.408 165.807 172.329 165.569L171.893 163.427L171.457 162.713L169.08 164.18C169.08 164.18 165.236 158.27 167.059 152.836C168.129 149.781 171.14 148.671 172.606 148.472C173.082 148.393 173.478 148.155 173.756 147.758C174.35 146.767 175.776 145.061 178.946 145.18C180.769 145.18 182.473 146.132 183.424 147.679C183.86 148.314 184.652 148.552 185.366 148.234C186.753 147.6 188.377 147.719 189.645 148.552C192.934 150.654 191.626 156.326 188.1 156.882Z" fill="black"/>
<path opacity="0.15" d="M171.378 169.337C171.378 169.337 172.329 169.416 172.844 169.02L171.22 171.519L171.378 169.337Z" fill="black"/>
<path opacity="0.15" d="M186.594 180.999L186.238 177.429C185.287 178.421 182.552 179.849 179.462 179.095C177.916 178.698 176.53 177.826 175.499 176.596C175.42 176.477 175.262 176.477 175.182 176.556C175.063 176.636 175.063 176.794 175.143 176.874C176.49 178.421 178.352 179.452 180.413 179.69C182.156 180.999 184.415 181.435 186.594 180.999Z" fill="black"/>
<path opacity="0.2" d="M183.504 174.692C183.504 174.732 183.464 174.732 183.504 174.692C182.553 174.771 182.117 174.811 182.117 174.811C181.958 174.811 181.8 174.692 181.8 174.533C181.8 174.375 181.919 174.216 182.077 174.216C182.077 174.216 182.077 174.216 182.117 174.216L183.464 174.097C183.623 174.097 183.781 174.176 183.781 174.335C183.781 174.533 183.662 174.692 183.504 174.692Z" fill="black"/>
<path opacity="0.2" d="M184.018 173.383C181.522 173.74 180.412 172.391 180.016 171.757C179.937 171.598 179.977 171.439 180.135 171.36C180.294 171.281 180.452 171.32 180.531 171.479C180.888 172.153 182.156 173.542 185.128 172.59C185.286 172.51 185.445 172.59 185.524 172.748C185.603 172.907 185.524 173.066 185.366 173.145H185.326C184.89 173.224 184.454 173.304 184.018 173.383Z" fill="black"/>
<path d="M180.611 167.512C181.126 167.512 181.522 167.116 181.522 166.6C181.522 166.084 181.126 165.688 180.611 165.688C180.096 165.688 179.699 166.084 179.699 166.6C179.66 167.116 180.096 167.512 180.611 167.512Z" fill="black"/>
<path d="M181.007 166.878C181.126 166.878 181.166 166.759 181.166 166.679C181.166 166.6 181.086 166.521 181.007 166.521C180.888 166.521 180.849 166.64 180.849 166.719C180.849 166.798 180.928 166.838 181.007 166.878Z" fill="white"/>
<path d="M187.822 167.552C188.338 167.552 188.734 167.155 188.734 166.64C188.734 166.124 188.338 165.727 187.822 165.727C187.307 165.727 186.911 166.124 186.911 166.64C186.911 167.155 187.307 167.552 187.822 167.552Z" fill="black"/>
<path d="M188.219 166.917C188.337 166.917 188.417 166.838 188.417 166.719C188.417 166.64 188.337 166.521 188.258 166.521C188.139 166.521 188.06 166.6 188.06 166.719C188.02 166.838 188.1 166.917 188.219 166.917Z" fill="white"/>
<path opacity="0.2" d="M184.692 171.162L183.503 171.241C183.345 171.241 183.226 171.122 183.226 171.003C183.226 170.844 183.345 170.725 183.464 170.725L184.653 170.646C184.97 170.646 185.207 170.408 185.207 170.091C185.207 169.773 184.97 169.535 184.653 169.535H184.613C184.454 169.535 184.336 169.416 184.336 169.297C184.296 169.139 184.454 169.059 184.573 169.02C185.168 168.98 185.683 169.416 185.762 170.011C185.722 170.567 185.287 171.082 184.692 171.162Z" fill="black"/>
<path d="M190.517 163.744L186.555 163.625H186L182.513 163.506H182.473L177.996 163.387C177.282 163.347 176.648 163.942 176.648 164.656L176.609 165.688C176.569 167.671 178.114 169.297 180.096 169.377C182.077 169.416 183.702 167.869 183.781 165.886L183.82 164.855C183.82 164.577 183.741 164.26 183.543 164.061L184.93 164.101C184.732 164.339 184.653 164.617 184.653 164.894L184.613 165.926C184.573 167.909 186.119 169.535 188.1 169.615C190.081 169.654 191.706 168.107 191.785 166.124L191.825 165.093C191.864 164.379 191.31 163.744 190.596 163.744C190.517 163.744 190.517 163.744 190.517 163.744ZM183.266 164.815L183.226 165.846C183.147 167.512 181.72 168.821 180.016 168.742C178.392 168.663 177.124 167.314 177.124 165.688L177.163 164.656C177.163 164.22 177.52 163.863 177.956 163.863H177.996L182.473 163.982H182.513C182.949 164.061 183.266 164.418 183.266 164.815ZM191.23 166.084C191.151 167.75 189.725 169.059 188.021 168.98C186.396 168.901 185.128 167.552 185.128 165.926L185.168 164.894C185.168 164.458 185.524 164.101 185.96 164.101H186H186.555L190.517 164.22C190.953 164.22 191.31 164.577 191.31 165.013V165.053L191.23 166.084Z" fill="black"/>
<path opacity="0.15" d="M188.615 195.557L183.899 271.003C183.899 272.47 185.049 273.66 186.515 273.66H206.565V262.236L188.615 195.557Z" fill="black"/>
<path opacity="0.3" d="M172.369 202.3L164.721 258.389V266.203L152.754 266.084V405.869L159.015 405.909L164.682 284.093L164.84 280.602C164.919 278.619 166.385 276.953 168.327 276.635L173.28 275.802C174.826 275.802 176.054 274.573 176.054 273.026V272.986L176.212 247.084C176.292 232.05 174.984 217.056 172.369 202.3Z" fill="black"/>
<path d="M193.449 184.093L207.239 187.623C211.043 188.496 213.975 191.55 214.688 195.438L222.772 237.405L206.961 235.818L206.288 271.518C206.288 272.232 205.693 272.788 204.98 272.788H189.804C189.091 272.788 188.536 272.232 188.496 271.518L187.149 183.062L193.449 184.093Z" fill="#00BC7D"/>
<path d="M169.991 183.657C172.884 201.348 174.231 219.238 174.033 237.167L173.637 271.518C173.637 272.232 173.042 272.788 172.329 272.788H152.516C151.803 272.788 151.248 272.232 151.209 271.518L150.971 241.967L144.671 244.347L142.135 245.021C139.004 245.854 135.755 243.672 135.557 240.459C135.517 240.102 135.557 239.706 135.597 239.349L142.254 195.715C142.888 191.709 145.859 188.496 149.822 187.663L161.313 185.124C164.166 184.45 167.059 183.974 169.991 183.657Z" fill="#00BC7D"/>
<path d="M208.824 235.858L222.772 237.405L218.809 216.977L208.824 218.563V235.858Z" fill="#FC9D9D"/>
<path opacity="0.15" d="M147.405 205.434C147.405 205.434 149.545 207.338 151.13 212.256L147.405 205.434Z" fill="black"/>
<path opacity="0.15" d="M208.705 221.776V205.434L211.756 222.49C212.192 225.188 213.618 227.607 215.758 229.313L222.415 234.549L222.97 237.841L211.003 233.835L208.665 221.657" fill="black"/>
<path d="M213.499 224.791C213.499 224.791 214.569 223.363 214.926 224.791L214.569 231.177L212.786 226.893L213.499 224.791Z" fill="#FC9D9D"/>
<path opacity="0.15" d="M213.499 224.791C213.499 224.791 214.569 223.363 214.926 224.791L214.569 231.177L212.786 226.893L213.499 224.791Z" fill="black"/>
<path opacity="0.15" d="M211.201 194.406C209.418 197.976 208.705 204.72 208.705 204.72C208.705 204.72 209.577 200.634 211.003 199.563" fill="black"/>
<path opacity="0.15" d="M150.932 247.322L151.209 271.518C151.209 272.232 151.803 272.788 152.517 272.788H156.717L156.519 239.349L153.983 229.987L151.724 206.267C151.724 206.108 151.605 205.989 151.447 205.989C151.288 205.989 151.169 206.108 151.169 206.267L150.932 247.322Z" fill="black"/>
<path d="M150.971 218.563L139.084 216.58L135.557 239.309C135.517 239.666 135.478 240.063 135.517 240.42C135.755 243.672 139.004 245.814 142.095 244.981L144.631 244.307L145.78 243.91C149.069 242.76 152.279 241.332 155.29 239.547L150.931 226.06L150.971 218.563Z" fill="#FC9D9D"/>
<path d="M214.015 231.177L221.9 235.858C222.613 236.294 222.891 237.127 223.01 238.04C223.327 240.697 222.098 247.798 214.847 245.576C214.292 245.418 213.856 245.061 213.539 244.585L208.784 237.643L214.015 231.177Z" fill="#FC9D9D"/>
<path opacity="0.15" d="M211.082 237.841C212.39 236.651 213.777 234.549 214.173 231.376L213.539 231.019L208.507 237.762L209.299 238.635L213.579 244.545C213.896 245.021 214.371 245.378 214.886 245.537C219.958 247.084 222.059 244.386 222.811 241.094C219.285 248.194 213.143 241.927 211.003 239.388C210.607 238.992 210.647 238.278 211.082 237.841Z" fill="black"/>
<path d="M151.011 226.259L177.837 219.317L189.447 214.676C189.962 214.478 190.557 214.438 191.112 214.597L196.58 216.144C196.976 216.263 197.372 216.461 197.65 216.778L201.057 220.19C201.414 220.547 201.414 221.142 201.057 221.499C201.018 221.538 200.978 221.538 200.978 221.578C200.661 221.816 200.186 221.816 199.869 221.578L196.184 218.801L193.014 217.849C192.776 217.77 192.578 217.889 192.459 218.087C192.34 218.286 192.419 218.524 192.617 218.682L196.62 221.538C197.016 221.816 197.174 222.292 197.016 222.728C196.937 222.927 196.818 223.125 196.62 223.244L196.302 223.442C196.025 223.641 195.668 223.68 195.351 223.522L194.083 223.006L194.599 223.323C194.916 223.561 195.074 223.958 194.955 224.355C194.876 224.632 194.678 224.831 194.401 224.91L194.004 225.029C193.846 225.069 193.648 225.069 193.489 225.029L191.27 224.394L193.212 225.227C193.489 225.346 193.648 225.664 193.529 225.981C193.529 225.981 193.529 226.021 193.489 226.021C193.449 226.14 193.331 226.219 193.251 226.298L192.697 226.576C192.261 226.814 191.746 226.893 191.23 226.854L188.813 226.576C188.813 226.576 185.604 227.29 180.651 226.933L152.477 241.173L147.167 235.144L151.011 226.259Z" fill="#FC9D9D"/>
<path opacity="0.15" d="M193.093 225.703C193.093 227.131 188.496 225.703 188.496 225.703C186.356 225.703 179.977 224.632 179.977 224.632L151.13 236.215V236.294C135.161 242.998 135.993 236.532 135.993 236.532L135.557 239.349C135.517 239.745 135.478 240.102 135.517 240.499C135.755 243.871 138.846 245.894 142.095 245.061L144.631 244.386L145.86 243.99C148.435 243.196 150.971 242.125 153.349 240.816L153.269 240.777L180.492 226.973C185.445 227.33 188.655 226.616 188.655 226.616L191.072 226.893C191.587 226.933 192.102 226.854 192.538 226.616L193.093 226.338C193.211 226.298 193.291 226.179 193.33 226.06V226.021L193.093 225.703Z" fill="black"/>
<path opacity="0.15" d="M194.281 223.125L191.349 221.776" stroke="black" strokeWidth="0.9" strokeMiterlimit="10" strokeLinecap="round"/>
<path opacity="0.15" d="M192.221 224.91L189.923 223.918" stroke="black" strokeWidth="0.9" strokeMiterlimit="10" strokeLinecap="round"/>
<path opacity="0.15" d="M165.434 184.252L164.444 204.68L172.25 200.118L169.991 183.657L165.434 184.252Z" fill="black"/>
<path d="M166.029 184.172L165.514 202.697L172.052 199.563L169.872 182.07L166.029 184.172Z" fill="#00BC7D"/>
<path opacity="0.15" d="M190.794 183.379L194.955 203.887L187.386 200.356L187.03 182.467L190.794 183.379Z" fill="black"/>
<path d="M187.03 181.673L187.386 199.563L193.766 202.3L190.2 183.181L187.03 181.673Z" fill="#00BC7D"/>
<path opacity="0.15" d="M150.971 226.1L147.405 227.29L150.931 224.632L150.971 226.1Z" fill="black"/>
<path d="M200.225 219.912L185.881 237.326L186.99 238.516L210.29 234.946L221.86 217.532L220.791 216.58L200.225 219.912Z" fill="#15247C"/>
<path opacity="0.2" d="M187.03 238.397L200.899 221.34L221.9 217.373L220.711 216.58L200.106 219.753L185.841 237.603L187.03 238.397Z" fill="black"/>
<path d="M209.616 224.513C210.054 224.513 210.409 224.158 210.409 223.72C210.409 223.282 210.054 222.927 209.616 222.927C209.178 222.927 208.824 223.282 208.824 223.72C208.824 224.158 209.178 224.513 209.616 224.513Z" fill="white"/>
<path d="M215.481 224.513C214.569 224.513 213.737 225.069 213.42 225.941C213.064 226.854 212.548 227.885 211.994 228.202C210.963 228.758 209.18 229.234 208.229 228.758C207.278 228.282 203.514 224.91 202.88 225.267C202.246 225.624 201.652 226.497 202.325 227.25C202.999 228.004 206.486 230.265 205.812 231.019C205.139 231.772 197.808 228.44 196.698 228.758C195.589 229.075 194.915 229.749 195.549 230.186C196.183 230.622 201.216 232.526 201.493 233.2C201.493 233.2 193.964 231.217 193.687 231.693C193.409 232.169 192.934 232.923 193.687 233.2C194.44 233.478 200.938 235.184 201.493 235.461C202.444 235.858 203.395 236.136 204.386 236.294C205.416 236.572 206.407 236.889 207.437 237.246C208.943 237.762 210.607 237.722 212.113 237.127L212.865 236.81C214.054 236.334 214.807 235.144 214.728 233.875L214.569 231.296L215.401 229.194L215.481 224.513Z" fill="#FC9D9D"/>
<path d="M200.899 234.43L195.748 234.033C195.748 234.033 194.916 234.311 195.351 234.866C195.55 235.104 195.787 235.223 196.104 235.263L204.861 236.413L200.899 234.43Z" fill="#FC9D9D"/>
<path d="M171.933 163.427C171.933 163.427 171.18 161.364 169.001 162.276C166.504 163.387 167.02 169.02 171.22 169.337C173.399 169.535 172.963 168.226 172.607 166.521L171.933 163.427Z" fill="#FC9D9D"/>
<path opacity="0.15" d="M168.921 163.744C169.278 163.466 169.674 163.347 170.11 163.427C170.506 163.546 170.863 163.823 171.061 164.18C171.339 164.656 171.457 165.172 171.457 165.727L171.497 166.203C171.497 166.362 171.339 166.441 171.22 166.441C171.101 166.441 171.022 166.322 170.982 166.203L170.942 165.727C170.942 165.291 170.823 164.855 170.625 164.458C170.506 164.22 170.269 164.022 170.031 163.903C169.754 163.863 169.476 163.942 169.238 164.101C169.12 164.18 168.961 164.141 168.882 164.022C168.763 164.022 168.803 163.863 168.921 163.744Z" fill="black"/>
</g>
<defs>
<clipPath id="clip0_140_536">
<rect width="634" height="476" fill="white"/>
</clipPath>
</defs>
</svg>
