<svg width="248" height="94" viewBox="0 0 248 94" fill="none" xmlns="http://www.w3.org/2000/svg">
<path d="M82.944 42.024L66.6 92.424H51.336L41.688 61.752L31.608 92.424H16.344L0 42.024H14.688L24.84 74.208L35.496 42.024H48.6L58.752 74.496L69.336 42.024H82.944Z" fill="#00FF85"/>
<path d="M82.944 42.024L66.6 92.424H51.336L41.688 61.752L31.608 92.424H16.344L0 42.024H14.688L24.84 74.208L35.496 42.024H48.6L58.752 74.496L69.336 42.024H82.944Z" fill="url(#paint0_linear_24_1558)"/>
<path d="M101.153 52.752C107.633 52.752 112.577 54.24 115.985 57.216C119.393 60.144 121.097 64.656 121.097 70.752V92.424H108.353V87.384C106.385 91.176 102.545 93.072 96.8333 93.072C93.8092 93.072 91.1933 92.544 88.9853 91.488C86.7773 90.432 85.0973 89.016 83.9453 87.24C82.8412 85.416 82.2893 83.352 82.2893 81.048C82.2893 77.352 83.7052 74.496 86.5372 72.48C89.3692 70.416 93.7373 69.384 99.6413 69.384H107.417C107.177 65.256 104.417 63.192 99.1373 63.192C97.2653 63.192 95.3692 63.504 93.4492 64.128C91.5293 64.704 89.8973 65.52 88.5533 66.576L83.9453 57.288C86.1053 55.848 88.7213 54.744 91.7933 53.976C94.9133 53.16 98.0332 52.752 101.153 52.752ZM100.649 84.432C102.233 84.432 103.625 84.048 104.825 83.28C106.025 82.512 106.889 81.384 107.417 79.896V76.512H101.513C97.5293 76.512 95.5373 77.832 95.5373 80.472C95.5373 81.672 95.9932 82.632 96.9053 83.352C97.8173 84.072 99.0653 84.432 100.649 84.432Z" fill="#00FF85"/>
<path d="M101.153 52.752C107.633 52.752 112.577 54.24 115.985 57.216C119.393 60.144 121.097 64.656 121.097 70.752V92.424H108.353V87.384C106.385 91.176 102.545 93.072 96.8333 93.072C93.8092 93.072 91.1933 92.544 88.9853 91.488C86.7773 90.432 85.0973 89.016 83.9453 87.24C82.8412 85.416 82.2893 83.352 82.2893 81.048C82.2893 77.352 83.7052 74.496 86.5372 72.48C89.3692 70.416 93.7373 69.384 99.6413 69.384H107.417C107.177 65.256 104.417 63.192 99.1373 63.192C97.2653 63.192 95.3692 63.504 93.4492 64.128C91.5293 64.704 89.8973 65.52 88.5533 66.576L83.9453 57.288C86.1053 55.848 88.7213 54.744 91.7933 53.976C94.9133 53.16 98.0332 52.752 101.153 52.752ZM100.649 84.432C102.233 84.432 103.625 84.048 104.825 83.28C106.025 82.512 106.889 81.384 107.417 79.896V76.512H101.513C97.5293 76.512 95.5373 77.832 95.5373 80.472C95.5373 81.672 95.9932 82.632 96.9053 83.352C97.8173 84.072 99.0653 84.432 100.649 84.432Z" fill="url(#paint1_linear_24_1558)"/>
<path d="M129.732 39H143.412V92.424H129.732V39Z" fill="#00FF85"/>
<path d="M129.732 39H143.412V92.424H129.732V39Z" fill="url(#paint2_linear_24_1558)"/>
<path d="M152.303 39H165.982V92.424H152.303V39Z" fill="#00FF85"/>
<path d="M152.303 39H165.982V92.424H152.303V39Z" fill="url(#paint3_linear_24_1558)"/>
<path d="M214.761 72.984C214.761 73.08 214.689 74.208 214.545 76.368H186.177C186.753 78.384 187.857 79.944 189.489 81.048C191.169 82.104 193.257 82.632 195.753 82.632C197.625 82.632 199.233 82.368 200.577 81.84C201.969 81.312 203.361 80.448 204.753 79.248L211.953 86.736C208.161 90.96 202.617 93.072 195.321 93.072C190.761 93.072 186.753 92.208 183.297 90.48C179.841 88.752 177.153 86.352 175.233 83.28C173.361 80.208 172.425 76.728 172.425 72.84C172.425 69 173.337 65.568 175.161 62.544C177.033 59.472 179.601 57.072 182.865 55.344C186.129 53.616 189.801 52.752 193.881 52.752C197.769 52.752 201.297 53.568 204.465 55.2C207.633 56.784 210.129 59.112 211.953 62.184C213.825 65.208 214.761 68.808 214.761 72.984ZM193.953 62.472C191.841 62.472 190.065 63.072 188.625 64.272C187.233 65.472 186.345 67.104 185.961 69.168H201.945C201.561 67.104 200.649 65.472 199.209 64.272C197.817 63.072 196.065 62.472 193.953 62.472Z" fill="#00FF85"/>
<path d="M214.761 72.984C214.761 73.08 214.689 74.208 214.545 76.368H186.177C186.753 78.384 187.857 79.944 189.489 81.048C191.169 82.104 193.257 82.632 195.753 82.632C197.625 82.632 199.233 82.368 200.577 81.84C201.969 81.312 203.361 80.448 204.753 79.248L211.953 86.736C208.161 90.96 202.617 93.072 195.321 93.072C190.761 93.072 186.753 92.208 183.297 90.48C179.841 88.752 177.153 86.352 175.233 83.28C173.361 80.208 172.425 76.728 172.425 72.84C172.425 69 173.337 65.568 175.161 62.544C177.033 59.472 179.601 57.072 182.865 55.344C186.129 53.616 189.801 52.752 193.881 52.752C197.769 52.752 201.297 53.568 204.465 55.2C207.633 56.784 210.129 59.112 211.953 62.184C213.825 65.208 214.761 68.808 214.761 72.984ZM193.953 62.472C191.841 62.472 190.065 63.072 188.625 64.272C187.233 65.472 186.345 67.104 185.961 69.168H201.945C201.561 67.104 200.649 65.472 199.209 64.272C197.817 63.072 196.065 62.472 193.953 62.472Z" fill="url(#paint4_linear_24_1558)"/>
<path d="M247.996 90.84C246.844 91.56 245.428 92.112 243.748 92.496C242.116 92.88 240.364 93.072 238.492 93.072C233.404 93.072 229.492 91.824 226.756 89.328C224.02 86.832 222.652 83.112 222.652 78.168V65.064H216.964V54.84H222.652V44.688H236.332V54.84H245.26V65.064H236.332V78.024C236.332 79.416 236.692 80.52 237.412 81.336C238.18 82.104 239.188 82.488 240.436 82.488C242.02 82.488 243.412 82.08 244.612 81.264L247.996 90.84Z" fill="#00FF85"/>
<path d="M247.996 90.84C246.844 91.56 245.428 92.112 243.748 92.496C242.116 92.88 240.364 93.072 238.492 93.072C233.404 93.072 229.492 91.824 226.756 89.328C224.02 86.832 222.652 83.112 222.652 78.168V65.064H216.964V54.84H222.652V44.688H236.332V54.84H245.26V65.064H236.332V78.024C236.332 79.416 236.692 80.52 237.412 81.336C238.18 82.104 239.188 82.488 240.436 82.488C242.02 82.488 243.412 82.08 244.612 81.264L247.996 90.84Z" fill="url(#paint5_linear_24_1558)"/>
<path d="M24.352 13.528C26.5067 13.528 28.2133 14.168 29.472 15.448C30.752 16.7067 31.392 18.6053 31.392 21.144V31H26.4V21.912C26.4 20.5467 26.112 19.5333 25.536 18.872C24.9813 18.1893 24.1813 17.848 23.136 17.848C21.9627 17.848 21.0347 18.232 20.352 19C19.6693 19.7467 19.328 20.8667 19.328 22.36V31H14.336V21.912C14.336 19.2027 13.248 17.848 11.072 17.848C9.92 17.848 9.00267 18.232 8.32 19C7.63733 19.7467 7.296 20.8667 7.296 22.36V31H2.304V13.784H7.072V15.768C7.712 15.0427 8.49067 14.488 9.408 14.104C10.3467 13.72 11.3707 13.528 12.48 13.528C13.696 13.528 14.7947 13.7733 15.776 14.264C16.7573 14.7333 17.5467 15.4267 18.144 16.344C18.848 15.448 19.7333 14.7547 20.8 14.264C21.888 13.7733 23.072 13.528 24.352 13.528ZM52.642 13.784L44.866 32.056C44.0767 34.04 43.0953 35.4373 41.922 36.248C40.77 37.0587 39.3727 37.464 37.73 37.464C36.834 37.464 35.9487 37.3253 35.074 37.048C34.1993 36.7707 33.4847 36.3867 32.93 35.896L34.754 32.344C35.138 32.6853 35.5753 32.952 36.066 33.144C36.578 33.336 37.0793 33.432 37.57 33.432C38.2527 33.432 38.8073 33.2613 39.234 32.92C39.6607 32.6 40.0447 32.056 40.386 31.288L40.45 31.128L32.994 13.784H38.146L42.978 25.464L47.842 13.784H52.642Z" fill="#00131A"/>
<defs>
<linearGradient id="paint0_linear_24_1558" x1="68.1989" y1="41.4332" x2="70.9915" y2="95.7949" gradientUnits="userSpaceOnUse">
<stop stopColor="#00FF85" stopOpacity="0"/>
<stop offset="1" stopColor="#03A456"/>
</linearGradient>
<linearGradient id="paint1_linear_24_1558" x1="68.1989" y1="41.4332" x2="70.9915" y2="95.7949" gradientUnits="userSpaceOnUse">
<stop stopColor="#00FF85" stopOpacity="0"/>
<stop offset="1" stopColor="#03A456"/>
</linearGradient>
<linearGradient id="paint2_linear_24_1558" x1="68.1989" y1="41.4332" x2="70.9915" y2="95.7949" gradientUnits="userSpaceOnUse">
<stop stopColor="#00FF85" stopOpacity="0"/>
<stop offset="1" stopColor="#03A456"/>
</linearGradient>
<linearGradient id="paint3_linear_24_1558" x1="68.1989" y1="41.4332" x2="70.9915" y2="95.7949" gradientUnits="userSpaceOnUse">
<stop stopColor="#00FF85" stopOpacity="0"/>
<stop offset="1" stopColor="#03A456"/>
</linearGradient>
<linearGradient id="paint4_linear_24_1558" x1="68.1989" y1="41.4332" x2="70.9915" y2="95.7949" gradientUnits="userSpaceOnUse">
<stop stopColor="#00FF85" stopOpacity="0"/>
<stop offset="1" stopColor="#03A456"/>
</linearGradient>
<linearGradient id="paint5_linear_24_1558" x1="68.1989" y1="41.4332" x2="70.9915" y2="95.7949" gradientUnits="userSpaceOnUse">
<stop stopColor="#00FF85" stopOpacity="0"/>
<stop offset="1" stopColor="#03A456"/>
</linearGradient>
</defs>
</svg>
